<svg xmlns="http://www.w3.org/2000/svg" xmlns:xlink="http://www.w3.org/1999/xlink" width="200" zoomAndPan="magnify" viewBox="0 0 150 37.5" height="50" preserveAspectRatio="xMidYMid meet" version="1.0"><path fill="#208ef4" d="M 24.417969 20.609375 C 23.949219 21.066406 23.730469 21.726562 23.84375 22.375 L 24.902344 28.546875 C 25.183594 30.175781 23.46875 31.417969 22.003906 30.648438 L 16.464844 27.734375 C 15.882812 27.429688 15.1875 27.429688 14.605469 27.734375 L 9.0625 30.648438 C 7.746094 31.34375 6.226562 30.40625 6.144531 29.019531 C 6.128906 28.867188 6.140625 28.710938 6.167969 28.546875 L 7.226562 22.375 C 7.335938 21.726562 7.117188 21.066406 6.652344 20.609375 L 2.167969 16.238281 C 0.980469 15.082031 1.636719 13.070312 3.273438 12.832031 L 9.46875 11.933594 C 10.117188 11.835938 10.679688 11.429688 10.96875 10.839844 L 13.742188 5.226562 C 14.476562 3.742188 16.589844 3.742188 17.324219 5.226562 L 20.09375 10.839844 C 20.386719 11.429688 20.945312 11.835938 21.59375 11.933594 L 27.792969 12.832031 C 27.949219 12.855469 28.097656 12.894531 28.234375 12.945312 C 29.542969 13.445312 29.972656 15.191406 28.898438 16.238281 Z M 24.417969 20.609375 " fill-opacity="1" fill-rule="nonzero"/><path fill="#208ef4" d="M 54.179688 20.609375 C 53.707031 21.066406 53.492188 21.726562 53.605469 22.375 L 54.660156 28.546875 C 54.941406 30.175781 53.230469 31.417969 51.765625 30.648438 L 46.222656 27.734375 C 45.640625 27.429688 44.945312 27.429688 44.363281 27.734375 L 38.824219 30.648438 C 37.503906 31.34375 35.984375 30.40625 35.902344 29.019531 C 35.890625 28.867188 35.898438 28.710938 35.925781 28.546875 L 36.984375 22.375 C 37.09375 21.726562 36.878906 21.066406 36.410156 20.609375 L 31.925781 16.238281 C 30.738281 15.082031 31.398438 13.070312 33.035156 12.832031 L 39.230469 11.933594 C 39.878906 11.835938 40.441406 11.429688 40.730469 10.839844 L 43.503906 5.226562 C 44.234375 3.742188 46.347656 3.742188 47.085938 5.226562 L 49.855469 10.839844 C 50.144531 11.429688 50.707031 11.835938 51.355469 11.933594 L 57.554688 12.832031 C 57.710938 12.855469 57.859375 12.894531 57.996094 12.945312 C 59.300781 13.445312 59.734375 15.191406 58.660156 16.238281 Z M 54.179688 20.609375 " fill-opacity="1" fill-rule="nonzero"/><path fill="#208ef4" d="M 83.9375 20.609375 C 83.464844 21.066406 83.25 21.726562 83.363281 22.375 L 84.421875 28.546875 C 84.703125 30.175781 82.988281 31.417969 81.523438 30.648438 L 75.984375 27.734375 C 75.402344 27.429688 74.703125 27.429688 74.121094 27.734375 L 68.582031 30.648438 C 67.265625 31.34375 65.742188 30.40625 65.660156 29.019531 C 65.648438 28.867188 65.65625 28.710938 65.683594 28.546875 L 66.742188 22.375 C 66.851562 21.726562 66.636719 21.066406 66.167969 20.609375 L 61.6875 16.238281 C 60.5 15.082031 61.15625 13.070312 62.792969 12.832031 L 68.988281 11.933594 C 69.636719 11.835938 70.199219 11.429688 70.488281 10.839844 L 73.261719 5.226562 C 73.992188 3.742188 76.109375 3.742188 76.84375 5.226562 L 79.613281 10.839844 C 79.902344 11.429688 80.464844 11.835938 81.113281 11.933594 L 87.3125 12.832031 C 87.46875 12.855469 87.617188 12.894531 87.753906 12.945312 C 89.058594 13.445312 89.492188 15.191406 88.417969 16.238281 Z M 83.9375 20.609375 " fill-opacity="1" fill-rule="nonzero"/><path fill="#208ef4" d="M 113.699219 20.609375 C 113.226562 21.066406 113.011719 21.726562 113.121094 22.375 L 114.179688 28.546875 C 114.460938 30.175781 112.746094 31.417969 111.285156 30.648438 L 105.742188 27.734375 C 105.160156 27.429688 104.464844 27.429688 103.882812 27.734375 L 98.339844 30.648438 C 97.023438 31.34375 95.503906 30.40625 95.421875 29.019531 C 95.40625 28.867188 95.417969 28.710938 95.445312 28.546875 L 96.503906 22.375 C 96.613281 21.726562 96.398438 21.066406 95.929688 20.609375 L 91.445312 16.238281 C 90.257812 15.082031 90.914062 13.070312 92.554688 12.832031 L 98.746094 11.933594 C 99.398438 11.835938 99.957031 11.429688 100.25 10.839844 L 103.023438 5.226562 C 103.753906 3.742188 105.867188 3.742188 106.601562 5.226562 L 109.375 10.839844 C 109.664062 11.429688 110.222656 11.835938 110.875 11.933594 L 117.070312 12.832031 C 117.230469 12.855469 117.375 12.894531 117.511719 12.945312 C 118.820312 13.445312 119.25 15.191406 118.175781 16.238281 Z M 113.699219 20.609375 " fill-opacity="1" fill-rule="nonzero"/><path fill="#208ef4" d="M 143.457031 20.609375 C 142.984375 21.066406 142.769531 21.726562 142.882812 22.375 L 143.9375 28.546875 C 144.21875 30.175781 142.503906 31.417969 141.042969 30.648438 L 135.5 27.734375 C 134.917969 27.429688 134.222656 27.429688 133.640625 27.734375 L 128.101562 30.648438 C 126.78125 31.34375 125.261719 30.40625 125.179688 29.019531 C 125.164062 28.867188 125.175781 28.710938 125.203125 28.546875 L 126.261719 22.375 C 126.371094 21.726562 126.15625 21.066406 125.6875 20.609375 L 121.203125 16.238281 C 120.015625 15.082031 120.671875 13.070312 122.3125 12.832031 L 128.507812 11.933594 C 129.15625 11.835938 129.714844 11.429688 130.007812 10.839844 L 132.78125 5.226562 C 133.511719 3.742188 135.625 3.742188 136.359375 5.226562 L 139.132812 10.839844 C 139.421875 11.429688 139.984375 11.835938 140.632812 11.933594 L 146.832031 12.832031 C 146.988281 12.855469 147.136719 12.894531 147.273438 12.945312 C 148.578125 13.445312 149.007812 15.191406 147.9375 16.238281 Z M 143.457031 20.609375 " fill-opacity="1" fill-rule="nonzero"/><path fill="#208ef4" d="M 28.238281 12.945312 C 23.332031 20.867188 15.445312 26.75 6.144531 29.019531 C 6.128906 28.867188 6.140625 28.710938 6.167969 28.546875 L 7.226562 22.375 C 7.335938 21.726562 7.117188 21.066406 6.652344 20.609375 L 2.167969 16.238281 C 0.980469 15.082031 1.636719 13.070312 3.273438 12.832031 L 9.46875 11.933594 C 10.117188 11.835938 10.679688 11.429688 10.96875 10.839844 L 13.742188 5.226562 C 14.476562 3.742188 16.589844 3.742188 17.324219 5.226562 L 20.09375 10.839844 C 20.386719 11.429688 20.945312 11.835938 21.59375 11.933594 L 27.792969 12.832031 C 27.953125 12.855469 28.097656 12.890625 28.238281 12.945312 Z M 28.238281 12.945312 " fill-opacity="1" fill-rule="nonzero"/><path fill="#208ef4" d="M 57.996094 12.945312 C 53.089844 20.867188 45.207031 26.75 35.902344 29.019531 C 35.890625 28.867188 35.898438 28.710938 35.925781 28.546875 L 36.984375 22.375 C 37.09375 21.726562 36.878906 21.066406 36.410156 20.609375 L 31.925781 16.238281 C 30.738281 15.082031 31.398438 13.070312 33.035156 12.832031 L 39.230469 11.933594 C 39.878906 11.835938 40.441406 11.429688 40.730469 10.839844 L 43.503906 5.226562 C 44.234375 3.742188 46.347656 3.742188 47.085938 5.226562 L 49.855469 10.839844 C 50.144531 11.429688 50.707031 11.835938 51.355469 11.933594 L 57.554688 12.832031 C 57.710938 12.855469 57.859375 12.890625 57.996094 12.945312 Z M 57.996094 12.945312 " fill-opacity="1" fill-rule="nonzero"/><path fill="#208ef4" d="M 87.753906 12.945312 C 82.851562 20.867188 74.964844 26.75 65.660156 29.019531 C 65.648438 28.867188 65.65625 28.710938 65.683594 28.546875 L 66.742188 22.375 C 66.851562 21.726562 66.636719 21.066406 66.167969 20.609375 L 61.6875 16.238281 C 60.5 15.082031 61.15625 13.070312 62.792969 12.832031 L 68.988281 11.933594 C 69.636719 11.835938 70.199219 11.429688 70.488281 10.839844 L 73.261719 5.226562 C 73.992188 3.742188 76.109375 3.742188 76.84375 5.226562 L 79.613281 10.839844 C 79.902344 11.429688 80.464844 11.835938 81.113281 11.933594 L 87.3125 12.832031 C 87.46875 12.855469 87.617188 12.890625 87.753906 12.945312 Z M 87.753906 12.945312 " fill-opacity="1" fill-rule="nonzero"/><path fill="#208ef4" d="M 117.511719 12.945312 C 112.609375 20.867188 104.722656 26.75 95.421875 29.019531 C 95.40625 28.867188 95.417969 28.710938 95.441406 28.546875 L 96.503906 22.375 C 96.609375 21.726562 96.394531 21.066406 95.925781 20.609375 L 91.445312 16.238281 C 90.257812 15.082031 90.914062 13.070312 92.550781 12.832031 L 98.746094 11.933594 C 99.394531 11.835938 99.957031 11.429688 100.246094 10.839844 L 103.019531 5.226562 C 103.753906 3.742188 105.867188 3.742188 106.601562 5.226562 L 109.371094 10.839844 C 109.660156 11.429688 110.222656 11.835938 110.871094 11.933594 L 117.070312 12.832031 C 117.230469 12.855469 117.375 12.890625 117.511719 12.945312 Z M 117.511719 12.945312 " fill-opacity="1" fill-rule="nonzero"/><path fill="#208ef4" d="M 147.273438 12.945312 C 142.367188 20.867188 134.484375 26.75 125.179688 29.019531 C 125.164062 28.867188 125.175781 28.710938 125.203125 28.546875 L 126.261719 22.375 C 126.371094 21.726562 126.15625 21.066406 125.6875 20.609375 L 121.203125 16.238281 C 120.015625 15.082031 120.671875 13.070312 122.3125 12.832031 L 128.507812 11.933594 C 129.15625 11.835938 129.714844 11.429688 130.007812 10.839844 L 132.78125 5.226562 C 133.511719 3.742188 135.625 3.742188 136.359375 5.226562 L 139.132812 10.839844 C 139.421875 11.429688 139.984375 11.835938 140.632812 11.933594 L 146.832031 12.832031 C 146.988281 12.855469 147.136719 12.890625 147.273438 12.945312 Z M 147.273438 12.945312 " fill-opacity="1" fill-rule="nonzero"/></svg>